<svg xmlns="http://www.w3.org/2000/svg" xmlns:xlink="http://www.w3.org/1999/xlink" version="1.1" width="1000" height="1000" viewBox="0 0 1000 1000" xml:space="preserve">
<desc>Created with Fabric.js 3.5.0</desc>
<defs>
</defs>
<rect x="0" y="0" width="100%" height="100%" fill="#ffffff"/>
<g transform="matrix(1.8449 0 0 1.8449 500.002 500.0019)" id="306662">
<path style="stroke: none; stroke-width: 1; stroke-dasharray: none; stroke-linecap: butt; stroke-dashoffset: 0; stroke-linejoin: miter; stroke-miterlimit: 4; is-custom-font: none; font-file-url: none; fill: rgb(255,145,20); fill-rule: nonzero; opacity: 1;" vector-effect="non-scaling-stroke" transform=" translate(-216.815, -216.8161)" d="M 320.298 330.553 c 19.527 0 35.414 -15.887 35.414 -35.415 c 0 -19.527 -15.886 -35.414 -35.414 -35.414 c -19.528 0 -35.416 15.887 -35.416 35.414 C 284.882 314.666 300.77 330.553 320.298 330.553 z M 320.298 278.724 c 9.05 0 16.414 7.363 16.414 16.414 c 0 9.052 -7.363 16.415 -16.414 16.415 c -9.052 0 -16.416 -7.363 -16.416 -16.415 C 303.882 286.087 311.247 278.724 320.298 278.724 z M 424.13 400.336 h -13.6 c 0.035 -0.333 0.053 -0.671 0.053 -1.014 c 0 -5.247 -4.253 -9.5 -9.5 -9.5 h -21.275 l -9.085 -10.358 c 21.395 -7.331 36.818 -27.646 36.818 -51.494 v -69.072 c 0 -18.938 -10.375 -35.498 -25.74 -44.296 V 71.411 h 16.253 c 2.958 0 5.746 -1.377 7.543 -3.726 l 26.075 -34.064 c 3.189 -4.166 2.397 -10.129 -1.769 -13.318 c -4.167 -3.188 -10.129 -2.398 -13.318 1.77 l -23.224 30.339 h -20.923 c -0.092 -0.002 -0.185 -0.002 -0.276 0 h -25.778 c -5.247 0 -9.5 4.253 -9.5 9.5 s 4.253 9.5 9.5 9.5 h 16.417 v 136.867 c -2.053 -0.253 -4.144 -0.383 -6.263 -0.383 h -24.676 l -62.098 -44.407 c -6.759 -4.839 -11.236 -12.061 -12.607 -20.336 c -1.371 -8.275 0.539 -16.555 5.377 -23.313 l 6.515 -9.101 c 3.554 1.552 7.49 2.049 11.416 1.395 c 5.358 -0.888 10.043 -3.8 13.193 -8.2 l 36.806 -51.418 c 3.15 -4.399 4.395 -9.773 3.507 -15.132 c -0.888 -5.357 -3.8 -10.043 -8.2 -13.191 l -8.536 -6.111 c -9.104 -6.515 -21.81 -4.41 -28.324 4.691 l -36.806 51.417 c -3.15 4.4 -4.396 9.774 -3.509 15.133 c 0.65 3.927 2.388 7.493 5.002 10.357 l -6.514 9.102 c -7.792 10.886 -10.872 24.195 -8.672 37.478 c 2.2 13.281 9.406 24.888 20.296 32.683 l 43.213 30.902 c -30.92 6.653 -55.801 29.741 -65.018 59.636 l -67.424 -23.112 c -0.799 -10.469 -9.573 -18.743 -20.243 -18.743 H 86.004 c -11.193 0 -20.3 9.107 -20.3 20.303 v 10.496 c 0 11.195 9.107 20.303 20.3 20.303 h 34.17 l -15.221 17.022 H 58.372 c -11.195 0 -20.302 9.107 -20.302 20.302 v 10.496 c 0 11.195 9.107 20.303 20.302 20.303 h 2.765 l -33.254 42.976 H 9.5 c -5.247 0 -9.5 4.253 -9.5 9.5 c 0 1.943 0.584 3.752 1.586 5.257 C 0.584 406.084 0 407.893 0 409.836 c 0 5.247 4.253 9.5 9.5 9.5 h 414.63 c 5.247 0 9.5 -4.253 9.5 -9.5 S 429.376 400.336 424.13 400.336 z M 267.555 85.248 l 36.807 -51.418 c 0.404 -0.563 1.252 -0.702 1.814 -0.3 l 8.537 6.111 c 0.35 0.251 0.473 0.6 0.514 0.848 c 0.041 0.248 0.038 0.617 -0.213 0.967 l -36.806 51.418 c -0.404 0.565 -1.253 0.705 -1.818 0.302 l -4.2 -3.007 c -0.022 -0.017 -0.044 -0.032 -0.066 -0.048 c -0.022 -0.017 -0.045 -0.032 -0.067 -0.048 l -4.201 -3.007 c -0.351 -0.251 -0.473 -0.6 -0.515 -0.849 C 267.3 85.969 267.304 85.599 267.555 85.248 z M 252.054 295.138 c 0 -3.854 0.321 -7.634 0.938 -11.315 c 0.052 -0.242 0.094 -0.485 0.126 -0.729 c 5.705 -31.905 33.659 -56.199 67.18 -56.199 h 36.24 c 17.646 0 32.003 14.356 32.003 32.003 v 69.072 c 0 19.526 -15.886 35.412 -35.412 35.412 h -89.961 c -6.128 0 -11.114 -4.986 -11.114 -11.115 V 295.138 z M 168.083 265.972 l 65.234 22.362 c -0.174 2.246 -0.263 4.514 -0.263 6.804 v 16.658 h -91.595 c -1.424 -6.655 -6.12 -12.111 -12.315 -14.599 l 16.519 -18.474 h 3.574 C 157.765 278.724 165.081 273.44 168.083 265.972 z M 86.004 259.724 c -0.693 0 -1.3 -0.608 -1.3 -1.303 v -10.496 c 0 -0.694 0.607 -1.303 1.3 -1.303 h 63.232 c 0.694 0 1.302 0.608 1.302 1.303 v 5.027 c -0.003 0.147 -0.003 0.295 0 0.44 v 5.028 c 0 0.694 -0.608 1.303 -1.302 1.303 H 86.004 z M 58.372 327.847 c -0.694 0 -1.302 -0.608 -1.302 -1.303 v -10.496 c 0 -0.693 0.608 -1.302 1.302 -1.302 h 50.794 c 0.022 -0.001 0.044 -0.001 0.067 0 h 12.37 c 0.694 0 1.303 0.608 1.303 1.302 v 10.496 c 0 0.694 -0.609 1.303 -1.303 1.303 H 58.372 z M 349.927 389.823 c -5.247 0 -9.5 4.253 -9.5 9.5 c 0 0.343 0.018 0.681 0.054 1.014 H 70.102 c 0.035 -0.333 0.053 -0.671 0.053 -1.014 c 0 -5.247 -4.253 -9.5 -9.5 -9.5 h -8.748 l 33.254 -42.976 h 36.442 c 9.737 0 17.896 -6.891 19.855 -16.051 h 91.595 v 21.471 c 0 16.605 13.509 30.115 30.114 30.115 h 84.842 l 6.525 7.44 H 349.927 z" stroke-linecap="round"/>
</g>
</svg>